<svg xmlns="http://www.w3.org/2000/svg" version="1.1" xmlns:xlink="http://www.w3.org/1999/xlink" xmlns:svgjs="http://svgjs.com/svgjs" width="1920" height="1080" preserveAspectRatio="none" viewBox="0 0 1920 1080"><g mask="url(&quot;#SvgjsMask1002&quot;)" fill="none"><rect width="1920" height="1080" x="0" y="0" fill="#0e2a47"></rect><path d="M 0,530 C 76.8,466.2 230.4,224.4 384,211 C 537.6,197.6 614.4,479.4 768,463 C 921.6,446.6 998.4,131.2 1152,129 C 1305.6,126.8 1382.4,427 1536,452 C 1689.6,477 1843.2,293.6 1920,254L1920 1080L0 1080z" fill="#184a7e" class="wave"></path><path d="M 0,587 C 128,674.4 384,1022.2 640,1024 C 896,1025.8 1024,634 1280,596 C 1536,558 1792,786.4 1920,834L1920 1080L0 1080z" fill="#2264ab" class="wave"></path></g><defs><mask id="SvgjsMask1002"><rect width="1920" height="1080" fill="#ffffff"></rect></mask><style>
    @keyframes waves{
        0%{transform: translate(0, 0)}
        50%{transform: translate(-100px, 100px}
        100%{transform: translate(0, 0)}
    }

    .wave {
        animation: waves 7s cubic-bezier( 0.36, 0.45, 0.63, 0.53) infinite;
    }
</style></defs></svg>